<mxfile host="app.diagrams.net" modified="2022-05-04T04:46:11.384Z" agent="5.0 (Windows NT 10.0; Win64; x64) AppleWebKit/537.36 (KHTML, like Gecko) Chrome/101.0.4951.41 Safari/537.36 Edg/101.0.1210.32" etag="s-Wv4IOhMUHVDp4OQNk2" version="17.5.0" type="github">
  <diagram id="VEpoDsYtcNziJOZe13D9" name="Page-1">
    <mxGraphModel dx="1038" dy="579" grid="1" gridSize="10" guides="1" tooltips="1" connect="1" arrows="1" fold="1" page="1" pageScale="1" pageWidth="850" pageHeight="1100" math="0" shadow="0">
      <root>
        <mxCell id="0" />
        <mxCell id="1" parent="0" />
        <mxCell id="nT7X82FBB_egxtQqWdgk-1" value="" style="edgeStyle=orthogonalEdgeStyle;rounded=0;orthogonalLoop=1;jettySize=auto;html=1;" edge="1" parent="1" source="nT7X82FBB_egxtQqWdgk-2" target="nT7X82FBB_egxtQqWdgk-4">
          <mxGeometry relative="1" as="geometry" />
        </mxCell>
        <mxCell id="nT7X82FBB_egxtQqWdgk-2" value="start" style="rounded=1;whiteSpace=wrap;html=1;" vertex="1" parent="1">
          <mxGeometry x="80" y="30" width="90" height="20" as="geometry" />
        </mxCell>
        <mxCell id="nT7X82FBB_egxtQqWdgk-3" value="" style="edgeStyle=orthogonalEdgeStyle;rounded=0;orthogonalLoop=1;jettySize=auto;html=1;" edge="1" parent="1" source="nT7X82FBB_egxtQqWdgk-4" target="nT7X82FBB_egxtQqWdgk-6">
          <mxGeometry relative="1" as="geometry" />
        </mxCell>
        <mxCell id="nT7X82FBB_egxtQqWdgk-4" value="assign the pop rvo id,agent type" style="whiteSpace=wrap;html=1;rounded=1;" vertex="1" parent="1">
          <mxGeometry x="65" y="100" width="120" height="60" as="geometry" />
        </mxCell>
        <mxCell id="nT7X82FBB_egxtQqWdgk-5" value="" style="edgeStyle=orthogonalEdgeStyle;rounded=0;orthogonalLoop=1;jettySize=auto;html=1;" edge="1" parent="1" source="nT7X82FBB_egxtQqWdgk-6" target="nT7X82FBB_egxtQqWdgk-8">
          <mxGeometry relative="1" as="geometry" />
        </mxCell>
        <mxCell id="nT7X82FBB_egxtQqWdgk-6" value="create a helper instance&amp;nbsp;" style="whiteSpace=wrap;html=1;rounded=1;" vertex="1" parent="1">
          <mxGeometry x="65" y="190" width="120" height="60" as="geometry" />
        </mxCell>
        <mxCell id="nT7X82FBB_egxtQqWdgk-7" value="" style="edgeStyle=orthogonalEdgeStyle;rounded=0;orthogonalLoop=1;jettySize=auto;html=1;" edge="1" parent="1" source="nT7X82FBB_egxtQqWdgk-8" target="nT7X82FBB_egxtQqWdgk-10">
          <mxGeometry relative="1" as="geometry" />
        </mxCell>
        <mxCell id="nT7X82FBB_egxtQqWdgk-8" value="create the animation related fields and set NA" style="whiteSpace=wrap;html=1;rounded=1;" vertex="1" parent="1">
          <mxGeometry x="65" y="280" width="120" height="60" as="geometry" />
        </mxCell>
        <mxCell id="nT7X82FBB_egxtQqWdgk-9" style="edgeStyle=orthogonalEdgeStyle;rounded=0;orthogonalLoop=1;jettySize=auto;html=1;entryX=0.5;entryY=0;entryDx=0;entryDy=0;" edge="1" parent="1" source="nT7X82FBB_egxtQqWdgk-10" target="nT7X82FBB_egxtQqWdgk-12">
          <mxGeometry relative="1" as="geometry" />
        </mxCell>
        <mxCell id="nT7X82FBB_egxtQqWdgk-10" value="assign property" style="whiteSpace=wrap;html=1;rounded=1;" vertex="1" parent="1">
          <mxGeometry x="65" y="380" width="120" height="60" as="geometry" />
        </mxCell>
        <mxCell id="nT7X82FBB_egxtQqWdgk-11" value="" style="edgeStyle=orthogonalEdgeStyle;rounded=0;orthogonalLoop=1;jettySize=auto;html=1;fontSize=9;" edge="1" parent="1" source="nT7X82FBB_egxtQqWdgk-12" target="nT7X82FBB_egxtQqWdgk-14">
          <mxGeometry relative="1" as="geometry" />
        </mxCell>
        <mxCell id="nT7X82FBB_egxtQqWdgk-12" value="&lt;font style=&quot;font-size: 9px&quot;&gt;IF parameter give json server conn&lt;/font&gt;" style="rhombus;whiteSpace=wrap;html=1;" vertex="1" parent="1">
          <mxGeometry x="250" y="40" width="80" height="80" as="geometry" />
        </mxCell>
        <mxCell id="nT7X82FBB_egxtQqWdgk-13" value="" style="edgeStyle=orthogonalEdgeStyle;rounded=0;orthogonalLoop=1;jettySize=auto;html=1;fontSize=9;" edge="1" parent="1" source="nT7X82FBB_egxtQqWdgk-14" target="nT7X82FBB_egxtQqWdgk-16">
          <mxGeometry relative="1" as="geometry" />
        </mxCell>
        <mxCell id="nT7X82FBB_egxtQqWdgk-14" value="assign the json server connection" style="whiteSpace=wrap;html=1;" vertex="1" parent="1">
          <mxGeometry x="230" y="160" width="120" height="60" as="geometry" />
        </mxCell>
        <mxCell id="nT7X82FBB_egxtQqWdgk-15" value="" style="edgeStyle=orthogonalEdgeStyle;rounded=0;orthogonalLoop=1;jettySize=auto;html=1;fontSize=9;" edge="1" parent="1" source="nT7X82FBB_egxtQqWdgk-16" target="nT7X82FBB_egxtQqWdgk-20">
          <mxGeometry relative="1" as="geometry" />
        </mxCell>
        <mxCell id="nT7X82FBB_egxtQqWdgk-16" value="FOR all custom property" style="rhombus;whiteSpace=wrap;html=1;" vertex="1" parent="1">
          <mxGeometry x="250" y="260" width="80" height="80" as="geometry" />
        </mxCell>
        <mxCell id="nT7X82FBB_egxtQqWdgk-17" style="edgeStyle=orthogonalEdgeStyle;rounded=0;orthogonalLoop=1;jettySize=auto;html=1;entryX=1;entryY=0.5;entryDx=0;entryDy=0;fontSize=9;" edge="1" parent="1" source="nT7X82FBB_egxtQqWdgk-20" target="nT7X82FBB_egxtQqWdgk-16">
          <mxGeometry relative="1" as="geometry">
            <Array as="points">
              <mxPoint x="290" y="440" />
              <mxPoint x="380" y="440" />
              <mxPoint x="380" y="300" />
            </Array>
          </mxGeometry>
        </mxCell>
        <mxCell id="nT7X82FBB_egxtQqWdgk-18" value="Next custom propety" style="edgeLabel;html=1;align=center;verticalAlign=middle;resizable=0;points=[];fontSize=9;" vertex="1" connectable="0" parent="nT7X82FBB_egxtQqWdgk-17">
          <mxGeometry x="0.3724" y="-4" relative="1" as="geometry">
            <mxPoint as="offset" />
          </mxGeometry>
        </mxCell>
        <mxCell id="nT7X82FBB_egxtQqWdgk-19" value="" style="edgeStyle=orthogonalEdgeStyle;rounded=0;orthogonalLoop=1;jettySize=auto;html=1;fontSize=9;" edge="1" parent="1" source="nT7X82FBB_egxtQqWdgk-20" target="nT7X82FBB_egxtQqWdgk-21">
          <mxGeometry relative="1" as="geometry" />
        </mxCell>
        <mxCell id="nT7X82FBB_egxtQqWdgk-20" value="assign to the class" style="whiteSpace=wrap;html=1;" vertex="1" parent="1">
          <mxGeometry x="230" y="370" width="120" height="60" as="geometry" />
        </mxCell>
        <mxCell id="nT7X82FBB_egxtQqWdgk-21" value="end" style="ellipse;whiteSpace=wrap;html=1;" vertex="1" parent="1">
          <mxGeometry x="230" y="470" width="120" height="60" as="geometry" />
        </mxCell>
      </root>
    </mxGraphModel>
  </diagram>
</mxfile>
